<svg xmlns="http://www.w3.org/2000/svg" xmlns:xlink="http://www.w3.org/1999/xlink" zoomAndPan="magnify" preserveAspectRatio="xMidYMid meet" version="1.0" viewBox="154.61 156.1 61.77 66.79"><defs><clipPath id="1bca45230f"><path d="M 190.898438 156.101562 L 216.386719 156.101562 L 216.386719 218.898438 L 190.898438 218.898438 Z M 190.898438 156.101562 " clip-rule="nonzero"/></clipPath><clipPath id="b1015dfc4d"><path d="M 158.613281 156.101562 L 188.90625 156.101562 L 188.90625 186.394531 L 158.613281 186.394531 Z M 158.613281 156.101562 " clip-rule="nonzero"/></clipPath><clipPath id="d3d49fc148"><path d="M 158.613281 188.605469 L 188.90625 188.605469 L 188.90625 218.898438 L 158.613281 218.898438 Z M 158.613281 188.605469 " clip-rule="nonzero"/></clipPath><clipPath id="83ea2f7a28"><path d="M 158.613281 188.605469 L 188.613281 188.605469 L 188.613281 218.605469 L 158.613281 218.605469 Z M 158.613281 188.605469 " clip-rule="nonzero"/></clipPath></defs><g clip-path="url(#1bca45230f)"><path fill="#345c72" d="M 190.898438 156.101562 L 216.386719 156.101562 L 216.386719 218.898438 L 190.898438 218.898438 Z M 190.898438 156.101562 " fill-opacity="1" fill-rule="nonzero"/></g><g clip-path="url(#b1015dfc4d)"><path fill="#df4810" d="M 158.613281 156.101562 L 188.90625 156.101562 L 188.90625 186.394531 L 158.613281 186.394531 Z M 158.613281 156.101562 " fill-opacity="1" fill-rule="nonzero"/></g><g clip-path="url(#d3d49fc148)"><path fill="#ffd1c0" d="M 158.613281 188.605469 L 188.90625 188.605469 L 188.90625 218.898438 L 158.613281 218.898438 Z M 158.613281 188.605469 " fill-opacity="1" fill-rule="nonzero"/></g><g clip-path="url(#83ea2f7a28)"><path stroke-linecap="butt" transform="matrix(0.75, 0, 0, 0.75, 158.614492, 188.604537)" fill="none" stroke-linejoin="miter" d="M -0.00161391 0.00124205 L 40.373389 0.00124205 L 40.373389 40.376245 L -0.00161391 40.376245 Z M -0.00161391 0.00124205 " stroke="#df4810" stroke-width="8" stroke-opacity="1" stroke-miterlimit="4"/></g></svg>