<svg xmlns="http://www.w3.org/2000/svg" xmlns:xlink="http://www.w3.org/1999/xlink" zoomAndPan="magnify" preserveAspectRatio="xMidYMid meet" version="1.0" viewBox="87.38 157.21 205.23 66.79"><defs><g/><clipPath id="cd0a798563"><path d="M 123.667969 157.207031 L 149.15625 157.207031 L 149.15625 220 L 123.667969 220 Z M 123.667969 157.207031 " clip-rule="nonzero"/></clipPath><clipPath id="ca7c139673"><path d="M 91.382812 157.207031 L 121.675781 157.207031 L 121.675781 187.5 L 91.382812 187.5 Z M 91.382812 157.207031 " clip-rule="nonzero"/></clipPath><clipPath id="5fc9f49bef"><path d="M 91.382812 189.710938 L 121.675781 189.710938 L 121.675781 220 L 91.382812 220 Z M 91.382812 189.710938 " clip-rule="nonzero"/></clipPath><clipPath id="122f9ef9a8"><path d="M 91.382812 189.710938 L 121.382812 189.710938 L 121.382812 219.710938 L 91.382812 219.710938 Z M 91.382812 189.710938 " clip-rule="nonzero"/></clipPath></defs><g clip-path="url(#cd0a798563)"><path fill="#345c72" d="M 123.667969 157.207031 L 149.15625 157.207031 L 149.15625 220 L 123.667969 220 Z M 123.667969 157.207031 " fill-opacity="1" fill-rule="nonzero"/></g><g clip-path="url(#ca7c139673)"><path fill="#df4810" d="M 91.382812 157.207031 L 121.675781 157.207031 L 121.675781 187.5 L 91.382812 187.5 Z M 91.382812 157.207031 " fill-opacity="1" fill-rule="nonzero"/></g><g clip-path="url(#5fc9f49bef)"><path fill="#ffd1c0" d="M 91.382812 189.710938 L 121.675781 189.710938 L 121.675781 220 L 91.382812 220 Z M 91.382812 189.710938 " fill-opacity="1" fill-rule="nonzero"/></g><g clip-path="url(#122f9ef9a8)"><path stroke-linecap="butt" transform="matrix(0.75, 0, 0, 0.75, 91.383896, 189.709075)" fill="none" stroke-linejoin="miter" d="M -0.0014448 0.00248368 L 40.373558 0.00248368 L 40.373558 40.377486 L -0.0014448 40.377486 Z M -0.0014448 0.00248368 " stroke="#df4810" stroke-width="8" stroke-opacity="1" stroke-miterlimit="4"/></g><g fill="#000000" fill-opacity="1"><g transform="translate(161.154368, 181.479063)"><g><path d="M 19.96875 0.15625 L 18.09375 0.15625 L 5.1875 -19.59375 L 5.1875 0 L 2.765625 0 L 2.765625 -21.09375 C 2.765625 -21.113281 2.726562 -21.28125 2.65625 -21.59375 C 2.582031 -21.914062 2.507812 -22.25 2.4375 -22.59375 C 2.363281 -22.945312 2.328125 -23.144531 2.328125 -23.1875 L 6.28125 -23.1875 L 17.546875 -5.828125 L 17.546875 -23.1875 L 19.96875 -23.1875 Z M 19.96875 0.15625 "/></g></g></g><g fill="#000000" fill-opacity="1"><g transform="translate(183.901746, 181.479063)"><g><path d="M 16.21875 0 L 2.734375 0 L 2.734375 -21.09375 C 2.734375 -21.113281 2.695312 -21.28125 2.625 -21.59375 C 2.550781 -21.914062 2.476562 -22.25 2.40625 -22.59375 C 2.332031 -22.945312 2.296875 -23.144531 2.296875 -23.1875 L 16.21875 -23.1875 L 16.21875 -21 L 5.703125 -21 L 5.703125 -13 L 13.859375 -13 L 13.859375 -10.828125 L 5.703125 -10.828125 L 5.703125 -2.203125 L 16.21875 -2.203125 Z M 16.21875 0 "/></g></g></g><g fill="#000000" fill-opacity="1"><g transform="translate(201.392384, 181.479063)"><g><path d="M 15.453125 0 L 2.734375 0 L 2.734375 -21.09375 C 2.734375 -21.113281 2.695312 -21.28125 2.625 -21.59375 C 2.550781 -21.914062 2.476562 -22.25 2.40625 -22.59375 C 2.332031 -22.945312 2.296875 -23.144531 2.296875 -23.1875 L 5.703125 -23.1875 L 5.703125 -2.203125 L 15.453125 -2.203125 Z M 15.453125 0 "/></g></g></g><g fill="#000000" fill-opacity="1"><g transform="translate(217.767954, 181.479063)"><g><path d="M 1.015625 -1.34375 L 2.171875 -3.953125 C 2.867188 -3.335938 3.71875 -2.84375 4.71875 -2.46875 C 5.71875 -2.09375 6.671875 -1.90625 7.578125 -1.90625 C 8.796875 -1.90625 9.878906 -2.242188 10.828125 -2.921875 C 11.785156 -3.609375 12.265625 -4.597656 12.265625 -5.890625 C 12.265625 -6.992188 11.894531 -7.925781 11.15625 -8.6875 C 10.425781 -9.457031 9.539062 -10.070312 8.5 -10.53125 C 7.46875 -10.988281 6.4375 -11.46875 5.40625 -11.96875 C 4.375 -12.46875 3.488281 -13.171875 2.75 -14.078125 C 2.019531 -14.992188 1.65625 -16.117188 1.65625 -17.453125 C 1.65625 -19.347656 2.375 -20.832031 3.8125 -21.90625 C 5.257812 -22.976562 6.960938 -23.515625 8.921875 -23.515625 C 10.984375 -23.515625 12.976562 -22.941406 14.90625 -21.796875 L 13.4375 -19.65625 C 11.957031 -20.71875 10.441406 -21.25 8.890625 -21.25 C 7.679688 -21.25 6.703125 -20.953125 5.953125 -20.359375 C 5.210938 -19.765625 4.84375 -18.882812 4.84375 -17.71875 C 4.84375 -17.050781 5.035156 -16.457031 5.421875 -15.9375 C 5.816406 -15.425781 6.320312 -14.988281 6.9375 -14.625 C 7.5625 -14.257812 8.25 -13.90625 9 -13.5625 C 9.75 -13.226562 10.503906 -12.851562 11.265625 -12.4375 C 12.035156 -12.019531 12.726562 -11.554688 13.34375 -11.046875 C 13.957031 -10.546875 14.460938 -9.890625 14.859375 -9.078125 C 15.253906 -8.273438 15.453125 -7.351562 15.453125 -6.3125 C 15.453125 -4.144531 14.6875 -2.488281 13.15625 -1.34375 C 11.625 -0.195312 9.734375 0.375 7.484375 0.375 C 5.398438 0.375 3.242188 -0.195312 1.015625 -1.34375 Z M 1.015625 -1.34375 "/></g></g></g><g fill="#000000" fill-opacity="1"><g transform="translate(234.207234, 181.479063)"><g><path d="M 11.71875 0.34375 C 10.039062 0.34375 8.535156 0.0234375 7.203125 -0.609375 C 5.878906 -1.242188 4.800781 -2.117188 3.96875 -3.234375 C 3.144531 -4.347656 2.519531 -5.609375 2.09375 -7.015625 C 1.675781 -8.429688 1.46875 -9.945312 1.46875 -11.5625 C 1.46875 -14.957031 2.351562 -17.796875 4.125 -20.078125 C 5.894531 -22.367188 8.4375 -23.515625 11.75 -23.515625 C 15.039062 -23.515625 17.570312 -22.367188 19.34375 -20.078125 C 21.125 -17.796875 22.015625 -14.957031 22.015625 -11.5625 C 22.015625 -9.375 21.644531 -7.398438 20.90625 -5.640625 C 20.175781 -3.878906 19.019531 -2.441406 17.4375 -1.328125 C 15.851562 -0.210938 13.945312 0.34375 11.71875 0.34375 Z M 18.921875 -11.5625 C 18.921875 -12.769531 18.789062 -13.925781 18.53125 -15.03125 C 18.28125 -16.132812 17.890625 -17.164062 17.359375 -18.125 C 16.828125 -19.082031 16.082031 -19.847656 15.125 -20.421875 C 14.175781 -20.992188 13.050781 -21.28125 11.75 -21.28125 C 10.457031 -21.28125 9.332031 -20.992188 8.375 -20.421875 C 7.425781 -19.847656 6.6875 -19.070312 6.15625 -18.09375 C 5.625 -17.113281 5.234375 -16.078125 4.984375 -14.984375 C 4.742188 -13.890625 4.625 -12.738281 4.625 -11.53125 C 4.625 -10.320312 4.742188 -9.171875 4.984375 -8.078125 C 5.234375 -6.984375 5.625 -5.953125 6.15625 -4.984375 C 6.6875 -4.015625 7.425781 -3.242188 8.375 -2.671875 C 9.332031 -2.097656 10.457031 -1.8125 11.75 -1.8125 C 13.050781 -1.8125 14.179688 -2.097656 15.140625 -2.671875 C 16.109375 -3.242188 16.859375 -4.015625 17.390625 -4.984375 C 17.921875 -5.953125 18.304688 -6.984375 18.546875 -8.078125 C 18.796875 -9.171875 18.921875 -10.332031 18.921875 -11.5625 Z M 18.921875 -11.5625 "/></g></g></g><g fill="#000000" fill-opacity="1"><g transform="translate(257.68737, 181.479063)"><g><path d="M 19.96875 0.15625 L 18.09375 0.15625 L 5.1875 -19.59375 L 5.1875 0 L 2.765625 0 L 2.765625 -21.09375 C 2.765625 -21.113281 2.726562 -21.28125 2.65625 -21.59375 C 2.582031 -21.914062 2.507812 -22.25 2.4375 -22.59375 C 2.363281 -22.945312 2.328125 -23.144531 2.328125 -23.1875 L 6.28125 -23.1875 L 17.546875 -5.828125 L 17.546875 -23.1875 L 19.96875 -23.1875 Z M 19.96875 0.15625 "/></g></g></g><g fill="#000000" fill-opacity="1"><g transform="translate(161.154368, 216.107057)"><g><path d="M 18.671875 -6.46875 C 18.671875 -4.957031 18.242188 -3.695312 17.390625 -2.6875 C 16.546875 -1.675781 15.515625 -0.972656 14.296875 -0.578125 C 13.085938 -0.191406 11.753906 0 10.296875 0 L 2.140625 0 L 2.140625 -21.375 C 2.140625 -21.394531 2.097656 -21.550781 2.015625 -21.84375 C 1.941406 -22.144531 1.867188 -22.453125 1.796875 -22.765625 C 1.722656 -23.085938 1.6875 -23.273438 1.6875 -23.328125 L 9.96875 -23.328125 C 10.96875 -23.328125 11.882812 -23.242188 12.71875 -23.078125 C 13.5625 -22.921875 14.363281 -22.648438 15.125 -22.265625 C 15.894531 -21.890625 16.5 -21.320312 16.9375 -20.5625 C 17.375 -19.8125 17.59375 -18.914062 17.59375 -17.875 C 17.59375 -16.53125 17.132812 -15.378906 16.21875 -14.421875 C 15.300781 -13.472656 14.175781 -12.90625 12.84375 -12.71875 C 14.476562 -12.4375 15.859375 -11.726562 16.984375 -10.59375 C 18.109375 -9.457031 18.671875 -8.082031 18.671875 -6.46875 Z M 12.96875 -17.265625 C 12.96875 -18.242188 12.675781 -18.972656 12.09375 -19.453125 C 11.507812 -19.929688 10.71875 -20.171875 9.71875 -20.171875 L 6.53125 -20.171875 L 6.53125 -14.203125 L 9.8125 -14.203125 C 10.726562 -14.203125 11.484375 -14.484375 12.078125 -15.046875 C 12.671875 -15.609375 12.96875 -16.347656 12.96875 -17.265625 Z M 14.046875 -6.984375 C 14.046875 -8.316406 13.554688 -9.328125 12.578125 -10.015625 C 11.609375 -10.710938 10.421875 -11.0625 9.015625 -11.0625 L 6.53125 -11.0625 L 6.53125 -3.15625 L 10 -3.15625 C 11.207031 -3.15625 12.179688 -3.492188 12.921875 -4.171875 C 13.671875 -4.847656 14.046875 -5.785156 14.046875 -6.984375 Z M 14.046875 -6.984375 "/></g></g></g><g fill="#000000" fill-opacity="1"><g transform="translate(180.715836, 216.107057)"><g><path d="M 20.046875 0 L 15.328125 0 L 13.03125 -6.6875 L 6.15625 -6.6875 L 3.765625 0 L 0.0625 0 L 8.3125 -23.328125 L 11.78125 -23.328125 Z M 11.984375 -9.8125 C 10.960938 -12.9375 10.15625 -15.59375 9.5625 -17.78125 C 8.832031 -15.125 8.054688 -12.46875 7.234375 -9.8125 Z M 11.984375 -9.8125 "/></g></g></g><g fill="#000000" fill-opacity="1"><g transform="translate(200.818919, 216.107057)"><g><path d="M 21.28125 0.03125 L 19.015625 0.03125 L 17.9375 -2.390625 C 16.875 -1.410156 15.8125 -0.707031 14.75 -0.28125 C 13.6875 0.132812 12.429688 0.34375 10.984375 0.34375 C 7.671875 0.34375 5.125 -0.765625 3.34375 -2.984375 C 1.5625 -5.203125 0.671875 -8.019531 0.671875 -11.4375 C 0.671875 -15.15625 1.695312 -18.128906 3.75 -20.359375 C 5.8125 -22.585938 8.671875 -23.703125 12.328125 -23.703125 C 13.773438 -23.703125 15.285156 -23.488281 16.859375 -23.0625 C 18.429688 -22.632812 19.648438 -22.007812 20.515625 -21.1875 L 18.1875 -18.578125 C 17.0625 -19.398438 16.117188 -19.957031 15.359375 -20.25 C 14.609375 -20.550781 13.597656 -20.703125 12.328125 -20.703125 C 10.648438 -20.703125 9.265625 -20.257812 8.171875 -19.375 C 7.078125 -18.5 6.320312 -17.414062 5.90625 -16.125 C 5.488281 -14.84375 5.28125 -13.375 5.28125 -11.71875 C 5.28125 -10.675781 5.398438 -9.648438 5.640625 -8.640625 C 5.890625 -7.640625 6.253906 -6.679688 6.734375 -5.765625 C 7.210938 -4.847656 7.882812 -4.109375 8.75 -3.546875 C 9.625 -2.984375 10.613281 -2.703125 11.71875 -2.703125 C 13.226562 -2.703125 14.445312 -3.148438 15.375 -4.046875 C 16.300781 -4.941406 16.765625 -6.140625 16.765625 -7.640625 L 16.765625 -9.625 L 11.921875 -9.625 L 12.328125 -12.421875 L 21.1875 -12.421875 C 21.144531 -9.828125 21.125 -7.875 21.125 -6.5625 C 21.125 -3.988281 21.175781 -1.789062 21.28125 0.03125 Z M 21.28125 0.03125 "/></g></g></g><g fill="#000000" fill-opacity="1"><g transform="translate(223.343282, 216.107057)"><g><path d="M 20.515625 -8.859375 C 20.515625 -5.691406 19.679688 -3.363281 18.015625 -1.875 C 16.347656 -0.394531 14.125 0.34375 11.34375 0.34375 C 8.382812 0.34375 6.113281 -0.441406 4.53125 -2.015625 C 2.957031 -3.597656 2.171875 -5.878906 2.171875 -8.859375 L 2.171875 -21.40625 L 1.65625 -23.328125 L 6.65625 -23.328125 L 6.65625 -7.8125 C 6.65625 -6.257812 7.125 -5.015625 8.0625 -4.078125 C 9 -3.140625 10.238281 -2.671875 11.78125 -2.671875 C 13.351562 -2.671875 14.601562 -3.128906 15.53125 -4.046875 C 16.457031 -4.960938 16.921875 -6.21875 16.921875 -7.8125 L 16.921875 -23.328125 L 20.515625 -23.328125 Z M 20.515625 -8.859375 "/></g></g></g><g fill="#000000" fill-opacity="1"><g transform="translate(245.867644, 216.107057)"><g><path d="M 25.046875 -0.03125 L 20.734375 -0.03125 L 20.734375 -15.828125 C 20.734375 -16.128906 20.789062 -16.894531 20.90625 -18.125 C 20.832031 -17.957031 20.75 -17.71875 20.65625 -17.40625 C 20.5625 -17.101562 20.472656 -16.820312 20.390625 -16.5625 C 20.304688 -16.3125 20.222656 -16.066406 20.140625 -15.828125 L 14.4375 0 L 12.078125 0 L 6.21875 -15.828125 C 6.125 -16.066406 6.035156 -16.3125 5.953125 -16.5625 C 5.867188 -16.820312 5.78125 -17.101562 5.6875 -17.40625 C 5.59375 -17.71875 5.515625 -17.957031 5.453125 -18.125 C 5.453125 -17.9375 5.476562 -17.578125 5.53125 -17.046875 C 5.582031 -16.515625 5.609375 -16.109375 5.609375 -15.828125 L 5.609375 -0.03125 L 2.140625 -0.03125 L 2.140625 -21.375 C 2.140625 -21.394531 2.097656 -21.550781 2.015625 -21.84375 C 1.941406 -22.144531 1.867188 -22.453125 1.796875 -22.765625 C 1.722656 -23.085938 1.6875 -23.273438 1.6875 -23.328125 L 7.8125 -23.328125 L 12.78125 -9.9375 C 13.007812 -9.300781 13.316406 -8.015625 13.703125 -6.078125 C 13.742188 -6.234375 13.851562 -6.769531 14.03125 -7.6875 C 14.21875 -8.613281 14.394531 -9.320312 14.5625 -9.8125 L 19.4375 -23.328125 L 25.046875 -23.328125 Z M 25.046875 -0.03125 "/></g></g></g><g fill="#000000" fill-opacity="1"><g transform="translate(272.565551, 216.107057)"><g><path d="M 20.046875 0 L 15.328125 0 L 13.03125 -6.6875 L 6.15625 -6.6875 L 3.765625 0 L 0.0625 0 L 8.3125 -23.328125 L 11.78125 -23.328125 Z M 11.984375 -9.8125 C 10.960938 -12.9375 10.15625 -15.59375 9.5625 -17.78125 C 8.832031 -15.125 8.054688 -12.46875 7.234375 -9.8125 Z M 11.984375 -9.8125 "/></g></g></g></svg>